# xmcd CD database file
#
# Track frame offsets:
#	150
#	19240
#	31418
#	43897
#	55335
#
# Disc length: 900 seconds
#
# Revision: 1
# Processed by: cddbd v1.5.2PL0 Copyright (c) Steve Scherf et al.
# Submitted via: CDex 1.51
#
DISCID=3f038205
DTITLE=Jay Wolf - Where It All Comes From
DYEAR=2004
DGENRE=Country
TTITLE0=Saturday Morning Recollection
TTITLE1=Red River Blues
TTITLE2=Where It All Comes From
TTITLE3=Hank Williams Saturday Night
TTITLE4=Time To Spare
EXTD=YEAR: 2004
EXTT0=
EXTT1=
EXTT2=
EXTT3=
EXTT4=
PLAYORDER=
